<?xml version="1.0" encoding="UTF-8" standalone="no"?>
<svg
   viewBox="0 0 620.5947 759.99917"
   height="759.99921"
   width="620.59473"
   xml:space="preserve"
   id="svg2"
   version="1.1"
   xmlns="http://www.w3.org/2000/svg"
   xmlns:svg="http://www.w3.org/2000/svg"
   xmlns:rdf="http://www.w3.org/1999/02/22-rdf-syntax-ns#"
   xmlns:cc="http://creativecommons.org/ns#"
   xmlns:dc="http://purl.org/dc/elements/1.1/"><metadata
     id="metadata8"><rdf:RDF><cc:Work
         rdf:about=""><dc:format>image/svg+xml</dc:format><dc:type
           rdf:resource="http://purl.org/dc/dcmitype/StillImage" /></cc:Work></rdf:RDF></metadata><defs
     id="defs6"><clipPath
       id="clipPath18"
       clipPathUnits="userSpaceOnUse"><path
         id="path16"
         d="M 0,800 H 800 V 0 H 0 Z" /></clipPath></defs><g
     transform="matrix(1.3333333,0,0,-1.3333333,-223.03585,913.33306)"
     id="g10"
     style="fill:#ffffff;fill-opacity:1"><g
       id="g12"
       style="fill:#ffffff;fill-opacity:1"><g
         clip-path="url(#clipPath18)"
         id="g14"
         style="fill:#ffffff;fill-opacity:1"><g
           transform="translate(533.123,585.4028)"
           id="g20"
           style="fill:#ffffff;fill-opacity:1"><path
             id="path22"
             style="fill:#ffffff;fill-opacity:1;fill-rule:nonzero;stroke:none"
             d="M 0,0 V 40.648 L 40.648,0 Z m -2.526,99.597 h -217.066 c -15.295,0 -27.738,-12.443 -27.738,-27.739 V 13.656 h 39.85 v 46.091 h 167.629 v -99.598 h 99.597 v -274.675 h -48.58 v -39.85 h 60.691 c 15.295,0 27.74,12.443 27.74,27.738 L 99.6,-1.251 Z" /></g><g
           transform="translate(455.2559,469.3774)"
           id="g24"
           style="fill:#ffffff;fill-opacity:1"><path
             id="path26"
             style="fill:#ffffff;fill-opacity:1;fill-rule:nonzero;stroke:none"
             d="M 0,0 -40.648,40.648 V 0 Z M 19.098,-314.527 V -39.85 h -99.597 v 99.597 h -167.63 v -374.274 z m -279.338,-39.85 c -15.295,0 -27.739,12.444 -27.739,27.739 V 71.858 c 0,15.296 12.444,27.74 27.739,27.74 H -43.176 L 58.951,-1.251 58.948,-326.638 c 0,-15.295 -12.444,-27.739 -27.739,-27.739 z" /></g></g></g></g></svg>
