<?xml version="1.0" encoding="UTF-8" standalone="no"?>
<svg
   viewBox="0 0 1066.6667 1066.6667"
   height="1066.6667"
   width="1066.6667"
   xml:space="preserve"
   id="svg2"
   version="1.1"
   xmlns="http://www.w3.org/2000/svg"
   xmlns:svg="http://www.w3.org/2000/svg"
   xmlns:rdf="http://www.w3.org/1999/02/22-rdf-syntax-ns#"
   xmlns:cc="http://creativecommons.org/ns#"
   xmlns:dc="http://purl.org/dc/elements/1.1/"><metadata
     id="metadata8"><rdf:RDF><cc:Work
         rdf:about=""><dc:format>image/svg+xml</dc:format><dc:type
           rdf:resource="http://purl.org/dc/dcmitype/StillImage" /></cc:Work></rdf:RDF></metadata><defs
     id="defs6"><clipPath
       id="clipPath18"
       clipPathUnits="userSpaceOnUse"><path
         id="path16"
         d="M 0,800 H 800 V 0 H 0 Z" /></clipPath></defs><g
     transform="matrix(1.3333333,0,0,-1.3333333,0,1066.6667)"
     id="g10"
     style="fill:#ffffff;fill-opacity:1"><g
       id="g12"
       style="fill:#ffffff;fill-opacity:1"><g
         clip-path="url(#clipPath18)"
         id="g14"
         style="fill:#ffffff;fill-opacity:1"><g
           transform="translate(589.1494,345.9268)"
           id="g20"
           style="fill:#ffffff;fill-opacity:1"><path
             id="path22"
             style="fill:#ffffff;fill-opacity:1;fill-rule:nonzero;stroke:none"
             d="m 0,0 c -28.471,0 -54.029,-12.426 -71.585,-32.135 l -185.25,76.038 c 0.31,3.35 0.477,6.741 0.477,10.17 0,3.43 -0.167,6.821 -0.477,10.17 l 185.25,76.039 c 17.556,-19.71 43.113,-32.136 71.585,-32.136 52.937,0 95.851,42.915 95.851,95.852 0,52.936 -42.914,95.85 -95.851,95.85 -52.938,0 -95.851,-42.914 -95.851,-95.85 0,-1.664 0.043,-3.317 0.126,-4.959 l -185.231,-76.032 c -19.97,24.392 -50.315,39.962 -84.298,39.962 -60.141,0 -108.895,-48.755 -108.895,-108.896 0,-60.141 48.754,-108.895 108.895,-108.895 33.983,0 64.328,15.569 84.298,39.961 l 185.231,-76.031 c -0.083,-1.642 -0.126,-3.296 -0.126,-4.959 0,-52.937 42.913,-95.851 95.851,-95.851 52.937,0 95.851,42.914 95.851,95.851 C 95.851,-42.914 52.937,0 0,0" /></g></g></g></g></svg>
