<?xml version="1.0" encoding="UTF-8" standalone="no"?>
<svg xmlns="http://www.w3.org/2000/svg"
            xmlns:xlink="http://www.w3.org/1999/xlink"
            version="1.1"
            baseProfile="full"
            viewBox="-4 -4 29 29" 
            width="116"
            height="116"
            id="qrcode-f7d16842c23e13967156b50ab999234b">
<symbol id="tracker"><path d="m 0 7 0 7 7 0 0 -7 -7 0 z m 1 1 5 0 0 5 -5 0 0 -5 z m 1 1 0 3 3 0 0 -3 -3 0 z" style="fill:#ffffff;stroke:none"></path></symbol>
<use x="0" y="-7" xlink:href="#tracker"></use>
<use x="0" y="7" xlink:href="#tracker"></use>
<use x="14" y="-7" xlink:href="#tracker"></use>
<path d="M9,0 h1v4h-1v-1h-1v-2h1v-1 M10,6 h1v1h1v1h-1v1h-1v1h-2v-1h1v-1h-1v-4h1v3h1v-1 M14,8 h3v2h-3v-2 M4,9 h2v1h2v1h-3v1h2v1h-3v-1h-1v-1h-1v1h-1v-2h-1v-2h2v2h2v-1 M11,9 h2v3h-1v-1h-1v-2 M20,9 h1v3h-2v-1h1v-2 M15,12 h1v2h-2v1h-1v1h-2v-1h-3v-4h1v2h1v1h1v-1h-1v-2h1v1h1v1h3v-1 M16,14 h4v1h-3v1h1v1h-1v2h-1v-3h-1v-1h1v-1 M10,16 h1v1h2v1h1v2h-1v-1h-2v1h-1v-2h-2v-1h2v-1 M12,0 v1h1v-1h-1 M11,1 v1h1v-1h-1 M12,2 v1h1v-1h-1 M12,6 v1h1v-1h-1 M3,8 v1h1v-1h-1 M18,10 v1h1v-1h-1 M14,11 v1h1v-1h-1 M0,12 v1h1v-1h-1 M2,12 v1h1v-1h-1 M20,13 v1h1v-1h-1 M20,15 v1h1v-1h-1 M13,16 v1h1v-1h-1 M18,18 v1h1v-1h-1 M11,20 v1h1v-1h-1 M14,20 v1h1v-1h-1 M16,20 v1h1v-1h-1 M19,20 v1h1v-1h-1 M11,4 h1v2h-1v-2 M6,8 h2v1h-2v-1 M18,8 h2v1h-2v-1 M16,11 h2v2h-1v-1h-1z M19,17 h2v2h-1v-1h-1z M8,19 h1v1h1v1h-2z" style="fill:#ffffff;stroke:none" ></path></svg>