<?xml version="1.0" encoding="UTF-8" standalone="no"?>
<svg
   version="1.1"
   width="290"
   height="290"
   viewBox="0 0 290 290"
   id="svg217"
   xmlns="http://www.w3.org/2000/svg"
   xmlns:svg="http://www.w3.org/2000/svg">
  <defs
     id="defs217" />
  <rect
     x="0"
     y="0"
     width="70"
     height="10"
     id="rect1"
     style="fill:#ffffff;fill-opacity:1" />
  <rect
     x="110"
     y="0"
     width="10"
     height="10"
     id="rect2"
     style="fill:#ffffff;fill-opacity:1" />
  <rect
     x="130"
     y="0"
     width="10"
     height="10"
     id="rect3"
     style="fill:#ffffff;fill-opacity:1" />
  <rect
     x="160"
     y="0"
     width="40"
     height="10"
     id="rect4"
     style="fill:#ffffff;fill-opacity:1" />
  <rect
     x="220"
     y="0"
     width="70"
     height="10"
     id="rect5"
     style="fill:#ffffff;fill-opacity:1" />
  <rect
     x="0"
     y="10"
     width="10"
     height="10"
     id="rect6"
     style="fill:#ffffff;fill-opacity:1" />
  <rect
     x="60"
     y="10"
     width="10"
     height="10"
     id="rect7"
     style="fill:#ffffff;fill-opacity:1" />
  <rect
     x="80"
     y="10"
     width="20"
     height="10"
     id="rect8"
     style="fill:#ffffff;fill-opacity:1" />
  <rect
     x="110"
     y="10"
     width="30"
     height="10"
     id="rect9"
     style="fill:#ffffff;fill-opacity:1" />
  <rect
     x="180"
     y="10"
     width="10"
     height="10"
     id="rect10"
     style="fill:#ffffff;fill-opacity:1" />
  <rect
     x="200"
     y="10"
     width="10"
     height="10"
     id="rect11"
     style="fill:#ffffff;fill-opacity:1" />
  <rect
     x="220"
     y="10"
     width="10"
     height="10"
     id="rect12"
     style="fill:#ffffff;fill-opacity:1" />
  <rect
     x="280"
     y="10"
     width="10"
     height="10"
     id="rect13"
     style="fill:#ffffff;fill-opacity:1" />
  <rect
     x="0"
     y="20"
     width="10"
     height="10"
     id="rect14"
     style="fill:#ffffff;fill-opacity:1" />
  <rect
     x="20"
     y="20"
     width="30"
     height="10"
     id="rect15"
     style="fill:#ffffff;fill-opacity:1" />
  <rect
     x="60"
     y="20"
     width="10"
     height="10"
     id="rect16"
     style="fill:#ffffff;fill-opacity:1" />
  <rect
     x="90"
     y="20"
     width="40"
     height="10"
     id="rect17"
     style="fill:#ffffff;fill-opacity:1" />
  <rect
     x="150"
     y="20"
     width="10"
     height="10"
     id="rect18"
     style="fill:#ffffff;fill-opacity:1" />
  <rect
     x="170"
     y="20"
     width="40"
     height="10"
     id="rect19"
     style="fill:#ffffff;fill-opacity:1" />
  <rect
     x="220"
     y="20"
     width="10"
     height="10"
     id="rect20"
     style="fill:#ffffff;fill-opacity:1" />
  <rect
     x="240"
     y="20"
     width="30"
     height="10"
     id="rect21"
     style="fill:#ffffff;fill-opacity:1" />
  <rect
     x="280"
     y="20"
     width="10"
     height="10"
     id="rect22"
     style="fill:#ffffff;fill-opacity:1" />
  <rect
     x="0"
     y="30"
     width="10"
     height="10"
     id="rect23"
     style="fill:#ffffff;fill-opacity:1" />
  <rect
     x="20"
     y="30"
     width="30"
     height="10"
     id="rect24"
     style="fill:#ffffff;fill-opacity:1" />
  <rect
     x="60"
     y="30"
     width="10"
     height="10"
     id="rect25"
     style="fill:#ffffff;fill-opacity:1" />
  <rect
     x="120"
     y="30"
     width="20"
     height="10"
     id="rect26"
     style="fill:#ffffff;fill-opacity:1" />
  <rect
     x="180"
     y="30"
     width="20"
     height="10"
     id="rect27"
     style="fill:#ffffff;fill-opacity:1" />
  <rect
     x="220"
     y="30"
     width="10"
     height="10"
     id="rect28"
     style="fill:#ffffff;fill-opacity:1" />
  <rect
     x="240"
     y="30"
     width="30"
     height="10"
     id="rect29"
     style="fill:#ffffff;fill-opacity:1" />
  <rect
     x="280"
     y="30"
     width="10"
     height="10"
     id="rect30"
     style="fill:#ffffff;fill-opacity:1" />
  <rect
     x="0"
     y="40"
     width="10"
     height="10"
     id="rect31"
     style="fill:#ffffff;fill-opacity:1" />
  <rect
     x="20"
     y="40"
     width="30"
     height="10"
     id="rect32"
     style="fill:#ffffff;fill-opacity:1" />
  <rect
     x="60"
     y="40"
     width="10"
     height="10"
     id="rect33"
     style="fill:#ffffff;fill-opacity:1" />
  <rect
     x="90"
     y="40"
     width="20"
     height="10"
     id="rect34"
     style="fill:#ffffff;fill-opacity:1" />
  <rect
     x="130"
     y="40"
     width="20"
     height="10"
     id="rect35"
     style="fill:#ffffff;fill-opacity:1" />
  <rect
     x="160"
     y="40"
     width="10"
     height="10"
     id="rect36"
     style="fill:#ffffff;fill-opacity:1" />
  <rect
     x="220"
     y="40"
     width="10"
     height="10"
     id="rect37"
     style="fill:#ffffff;fill-opacity:1" />
  <rect
     x="240"
     y="40"
     width="30"
     height="10"
     id="rect38"
     style="fill:#ffffff;fill-opacity:1" />
  <rect
     x="280"
     y="40"
     width="10"
     height="10"
     id="rect39"
     style="fill:#ffffff;fill-opacity:1" />
  <rect
     x="0"
     y="50"
     width="10"
     height="10"
     id="rect40"
     style="fill:#ffffff;fill-opacity:1" />
  <rect
     x="60"
     y="50"
     width="10"
     height="10"
     id="rect41"
     style="fill:#ffffff;fill-opacity:1" />
  <rect
     x="80"
     y="50"
     width="10"
     height="10"
     id="rect42"
     style="fill:#ffffff;fill-opacity:1" />
  <rect
     x="110"
     y="50"
     width="50"
     height="10"
     id="rect43"
     style="fill:#ffffff;fill-opacity:1" />
  <rect
     x="180"
     y="50"
     width="20"
     height="10"
     id="rect44"
     style="fill:#ffffff;fill-opacity:1" />
  <rect
     x="220"
     y="50"
     width="10"
     height="10"
     id="rect45"
     style="fill:#ffffff;fill-opacity:1" />
  <rect
     x="280"
     y="50"
     width="10"
     height="10"
     id="rect46"
     style="fill:#ffffff;fill-opacity:1" />
  <rect
     x="0"
     y="60"
     width="70"
     height="10"
     id="rect47"
     style="fill:#ffffff;fill-opacity:1" />
  <rect
     x="80"
     y="60"
     width="10"
     height="10"
     id="rect48"
     style="fill:#ffffff;fill-opacity:1" />
  <rect
     x="100"
     y="60"
     width="10"
     height="10"
     id="rect49"
     style="fill:#ffffff;fill-opacity:1" />
  <rect
     x="120"
     y="60"
     width="10"
     height="10"
     id="rect50"
     style="fill:#ffffff;fill-opacity:1" />
  <rect
     x="140"
     y="60"
     width="10"
     height="10"
     id="rect51"
     style="fill:#ffffff;fill-opacity:1" />
  <rect
     x="160"
     y="60"
     width="10"
     height="10"
     id="rect52"
     style="fill:#ffffff;fill-opacity:1" />
  <rect
     x="180"
     y="60"
     width="10"
     height="10"
     id="rect53"
     style="fill:#ffffff;fill-opacity:1" />
  <rect
     x="200"
     y="60"
     width="10"
     height="10"
     id="rect54"
     style="fill:#ffffff;fill-opacity:1" />
  <rect
     x="220"
     y="60"
     width="70"
     height="10"
     id="rect55"
     style="fill:#ffffff;fill-opacity:1" />
  <rect
     x="80"
     y="70"
     width="30"
     height="10"
     id="rect56"
     style="fill:#ffffff;fill-opacity:1" />
  <rect
     x="120"
     y="70"
     width="10"
     height="10"
     id="rect57"
     style="fill:#ffffff;fill-opacity:1" />
  <rect
     x="150"
     y="70"
     width="60"
     height="10"
     id="rect58"
     style="fill:#ffffff;fill-opacity:1" />
  <rect
     x="40"
     y="80"
     width="40"
     height="10"
     id="rect59"
     style="fill:#ffffff;fill-opacity:1" />
  <rect
     x="90"
     y="80"
     width="10"
     height="10"
     id="rect60"
     style="fill:#ffffff;fill-opacity:1" />
  <rect
     x="110"
     y="80"
     width="20"
     height="10"
     id="rect61"
     style="fill:#ffffff;fill-opacity:1" />
  <rect
     x="140"
     y="80"
     width="10"
     height="10"
     id="rect62"
     style="fill:#ffffff;fill-opacity:1" />
  <rect
     x="180"
     y="80"
     width="10"
     height="10"
     id="rect63"
     style="fill:#ffffff;fill-opacity:1" />
  <rect
     x="220"
     y="80"
     width="20"
     height="10"
     id="rect64"
     style="fill:#ffffff;fill-opacity:1" />
  <rect
     x="270"
     y="80"
     width="10"
     height="10"
     id="rect65"
     style="fill:#ffffff;fill-opacity:1" />
  <rect
     x="10"
     y="90"
     width="10"
     height="10"
     id="rect66"
     style="fill:#ffffff;fill-opacity:1" />
  <rect
     x="40"
     y="90"
     width="10"
     height="10"
     id="rect67"
     style="fill:#ffffff;fill-opacity:1" />
  <rect
     x="80"
     y="90"
     width="20"
     height="10"
     id="rect68"
     style="fill:#ffffff;fill-opacity:1" />
  <rect
     x="120"
     y="90"
     width="10"
     height="10"
     id="rect69"
     style="fill:#ffffff;fill-opacity:1" />
  <rect
     x="140"
     y="90"
     width="10"
     height="10"
     id="rect70"
     style="fill:#ffffff;fill-opacity:1" />
  <rect
     x="160"
     y="90"
     width="20"
     height="10"
     id="rect71"
     style="fill:#ffffff;fill-opacity:1" />
  <rect
     x="190"
     y="90"
     width="30"
     height="10"
     id="rect72"
     style="fill:#ffffff;fill-opacity:1" />
  <rect
     x="240"
     y="90"
     width="10"
     height="10"
     id="rect73"
     style="fill:#ffffff;fill-opacity:1" />
  <rect
     x="270"
     y="90"
     width="20"
     height="10"
     id="rect74"
     style="fill:#ffffff;fill-opacity:1" />
  <rect
     x="0"
     y="100"
     width="20"
     height="10"
     id="rect75"
     style="fill:#ffffff;fill-opacity:1" />
  <rect
     x="30"
     y="100"
     width="10"
     height="10"
     id="rect76"
     style="fill:#ffffff;fill-opacity:1" />
  <rect
     x="60"
     y="100"
     width="40"
     height="10"
     id="rect77"
     style="fill:#ffffff;fill-opacity:1" />
  <rect
     x="110"
     y="100"
     width="70"
     height="10"
     id="rect78"
     style="fill:#ffffff;fill-opacity:1" />
  <rect
     x="200"
     y="100"
     width="20"
     height="10"
     id="rect79"
     style="fill:#ffffff;fill-opacity:1" />
  <rect
     x="280"
     y="100"
     width="10"
     height="10"
     id="rect80"
     style="fill:#ffffff;fill-opacity:1" />
  <rect
     x="0"
     y="110"
     width="20"
     height="10"
     id="rect81"
     style="fill:#ffffff;fill-opacity:1" />
  <rect
     x="70"
     y="110"
     width="10"
     height="10"
     id="rect82"
     style="fill:#ffffff;fill-opacity:1" />
  <rect
     x="90"
     y="110"
     width="30"
     height="10"
     id="rect83"
     style="fill:#ffffff;fill-opacity:1" />
  <rect
     x="170"
     y="110"
     width="10"
     height="10"
     id="rect84"
     style="fill:#ffffff;fill-opacity:1" />
  <rect
     x="210"
     y="110"
     width="10"
     height="10"
     id="rect85"
     style="fill:#ffffff;fill-opacity:1" />
  <rect
     x="230"
     y="110"
     width="10"
     height="10"
     id="rect86"
     style="fill:#ffffff;fill-opacity:1" />
  <rect
     x="250"
     y="110"
     width="10"
     height="10"
     id="rect87"
     style="fill:#ffffff;fill-opacity:1" />
  <rect
     x="270"
     y="110"
     width="20"
     height="10"
     id="rect88"
     style="fill:#ffffff;fill-opacity:1" />
  <rect
     x="0"
     y="120"
     width="10"
     height="10"
     id="rect89"
     style="fill:#ffffff;fill-opacity:1" />
  <rect
     x="30"
     y="120"
     width="10"
     height="10"
     id="rect90"
     style="fill:#ffffff;fill-opacity:1" />
  <rect
     x="60"
     y="120"
     width="20"
     height="10"
     id="rect91"
     style="fill:#ffffff;fill-opacity:1" />
  <rect
     x="90"
     y="120"
     width="10"
     height="10"
     id="rect92"
     style="fill:#ffffff;fill-opacity:1" />
  <rect
     x="110"
     y="120"
     width="20"
     height="10"
     id="rect93"
     style="fill:#ffffff;fill-opacity:1" />
  <rect
     x="190"
     y="120"
     width="20"
     height="10"
     id="rect94"
     style="fill:#ffffff;fill-opacity:1" />
  <rect
     x="230"
     y="120"
     width="10"
     height="10"
     id="rect95"
     style="fill:#ffffff;fill-opacity:1" />
  <rect
     x="280"
     y="120"
     width="10"
     height="10"
     id="rect96"
     style="fill:#ffffff;fill-opacity:1" />
  <rect
     x="20"
     y="130"
     width="20"
     height="10"
     id="rect97"
     style="fill:#ffffff;fill-opacity:1" />
  <rect
     x="50"
     y="130"
     width="10"
     height="10"
     id="rect98"
     style="fill:#ffffff;fill-opacity:1" />
  <rect
     x="70"
     y="130"
     width="30"
     height="10"
     id="rect99"
     style="fill:#ffffff;fill-opacity:1" />
  <rect
     x="110"
     y="130"
     width="10"
     height="10"
     id="rect100"
     style="fill:#ffffff;fill-opacity:1" />
  <rect
     x="150"
     y="130"
     width="40"
     height="10"
     id="rect101"
     style="fill:#ffffff;fill-opacity:1" />
  <rect
     x="220"
     y="130"
     width="10"
     height="10"
     id="rect102"
     style="fill:#ffffff;fill-opacity:1" />
  <rect
     x="240"
     y="130"
     width="10"
     height="10"
     id="rect103"
     style="fill:#ffffff;fill-opacity:1" />
  <rect
     x="260"
     y="130"
     width="10"
     height="10"
     id="rect104"
     style="fill:#ffffff;fill-opacity:1" />
  <rect
     x="280"
     y="130"
     width="10"
     height="10"
     id="rect105"
     style="fill:#ffffff;fill-opacity:1" />
  <rect
     x="0"
     y="140"
     width="40"
     height="10"
     id="rect106"
     style="fill:#ffffff;fill-opacity:1" />
  <rect
     x="60"
     y="140"
     width="30"
     height="10"
     id="rect107"
     style="fill:#ffffff;fill-opacity:1" />
  <rect
     x="110"
     y="140"
     width="60"
     height="10"
     id="rect108"
     style="fill:#ffffff;fill-opacity:1" />
  <rect
     x="180"
     y="140"
     width="10"
     height="10"
     id="rect109"
     style="fill:#ffffff;fill-opacity:1" />
  <rect
     x="200"
     y="140"
     width="10"
     height="10"
     id="rect110"
     style="fill:#ffffff;fill-opacity:1" />
  <rect
     x="240"
     y="140"
     width="10"
     height="10"
     id="rect111"
     style="fill:#ffffff;fill-opacity:1" />
  <rect
     x="280"
     y="140"
     width="10"
     height="10"
     id="rect112"
     style="fill:#ffffff;fill-opacity:1" />
  <rect
     x="0"
     y="150"
     width="10"
     height="10"
     id="rect113"
     style="fill:#ffffff;fill-opacity:1" />
  <rect
     x="20"
     y="150"
     width="20"
     height="10"
     id="rect114"
     style="fill:#ffffff;fill-opacity:1" />
  <rect
     x="80"
     y="150"
     width="10"
     height="10"
     id="rect115"
     style="fill:#ffffff;fill-opacity:1" />
  <rect
     x="100"
     y="150"
     width="10"
     height="10"
     id="rect116"
     style="fill:#ffffff;fill-opacity:1" />
  <rect
     x="120"
     y="150"
     width="10"
     height="10"
     id="rect117"
     style="fill:#ffffff;fill-opacity:1" />
  <rect
     x="160"
     y="150"
     width="20"
     height="10"
     id="rect118"
     style="fill:#ffffff;fill-opacity:1" />
  <rect
     x="200"
     y="150"
     width="20"
     height="10"
     id="rect119"
     style="fill:#ffffff;fill-opacity:1" />
  <rect
     x="230"
     y="150"
     width="10"
     height="10"
     id="rect120"
     style="fill:#ffffff;fill-opacity:1" />
  <rect
     x="250"
     y="150"
     width="10"
     height="10"
     id="rect121"
     style="fill:#ffffff;fill-opacity:1" />
  <rect
     x="270"
     y="150"
     width="10"
     height="10"
     id="rect122"
     style="fill:#ffffff;fill-opacity:1" />
  <rect
     x="30"
     y="160"
     width="10"
     height="10"
     id="rect123"
     style="fill:#ffffff;fill-opacity:1" />
  <rect
     x="60"
     y="160"
     width="50"
     height="10"
     id="rect124"
     style="fill:#ffffff;fill-opacity:1" />
  <rect
     x="120"
     y="160"
     width="20"
     height="10"
     id="rect125"
     style="fill:#ffffff;fill-opacity:1" />
  <rect
     x="150"
     y="160"
     width="20"
     height="10"
     id="rect126"
     style="fill:#ffffff;fill-opacity:1" />
  <rect
     x="200"
     y="160"
     width="30"
     height="10"
     id="rect127"
     style="fill:#ffffff;fill-opacity:1" />
  <rect
     x="240"
     y="160"
     width="10"
     height="10"
     id="rect128"
     style="fill:#ffffff;fill-opacity:1" />
  <rect
     x="270"
     y="160"
     width="20"
     height="10"
     id="rect129"
     style="fill:#ffffff;fill-opacity:1" />
  <rect
     x="0"
     y="170"
     width="10"
     height="10"
     id="rect130"
     style="fill:#ffffff;fill-opacity:1" />
  <rect
     x="40"
     y="170"
     width="20"
     height="10"
     id="rect131"
     style="fill:#ffffff;fill-opacity:1" />
  <rect
     x="80"
     y="170"
     width="30"
     height="10"
     id="rect132"
     style="fill:#ffffff;fill-opacity:1" />
  <rect
     x="130"
     y="170"
     width="30"
     height="10"
     id="rect133"
     style="fill:#ffffff;fill-opacity:1" />
  <rect
     x="190"
     y="170"
     width="10"
     height="10"
     id="rect134"
     style="fill:#ffffff;fill-opacity:1" />
  <rect
     x="230"
     y="170"
     width="10"
     height="10"
     id="rect135"
     style="fill:#ffffff;fill-opacity:1" />
  <rect
     x="260"
     y="170"
     width="10"
     height="10"
     id="rect136"
     style="fill:#ffffff;fill-opacity:1" />
  <rect
     x="280"
     y="170"
     width="10"
     height="10"
     id="rect137"
     style="fill:#ffffff;fill-opacity:1" />
  <rect
     x="30"
     y="180"
     width="20"
     height="10"
     id="rect138"
     style="fill:#ffffff;fill-opacity:1" />
  <rect
     x="60"
     y="180"
     width="10"
     height="10"
     id="rect139"
     style="fill:#ffffff;fill-opacity:1" />
  <rect
     x="90"
     y="180"
     width="10"
     height="10"
     id="rect140"
     style="fill:#ffffff;fill-opacity:1" />
  <rect
     x="110"
     y="180"
     width="30"
     height="10"
     id="rect141"
     style="fill:#ffffff;fill-opacity:1" />
  <rect
     x="150"
     y="180"
     width="10"
     height="10"
     id="rect142"
     style="fill:#ffffff;fill-opacity:1" />
  <rect
     x="170"
     y="180"
     width="10"
     height="10"
     id="rect143"
     style="fill:#ffffff;fill-opacity:1" />
  <rect
     x="190"
     y="180"
     width="10"
     height="10"
     id="rect144"
     style="fill:#ffffff;fill-opacity:1" />
  <rect
     x="230"
     y="180"
     width="30"
     height="10"
     id="rect145"
     style="fill:#ffffff;fill-opacity:1" />
  <rect
     x="280"
     y="180"
     width="10"
     height="10"
     id="rect146"
     style="fill:#ffffff;fill-opacity:1" />
  <rect
     x="30"
     y="190"
     width="10"
     height="10"
     id="rect147"
     style="fill:#ffffff;fill-opacity:1" />
  <rect
     x="50"
     y="190"
     width="10"
     height="10"
     id="rect148"
     style="fill:#ffffff;fill-opacity:1" />
  <rect
     x="70"
     y="190"
     width="30"
     height="10"
     id="rect149"
     style="fill:#ffffff;fill-opacity:1" />
  <rect
     x="110"
     y="190"
     width="30"
     height="10"
     id="rect150"
     style="fill:#ffffff;fill-opacity:1" />
  <rect
     x="150"
     y="190"
     width="10"
     height="10"
     id="rect151"
     style="fill:#ffffff;fill-opacity:1" />
  <rect
     x="170"
     y="190"
     width="40"
     height="10"
     id="rect152"
     style="fill:#ffffff;fill-opacity:1" />
  <rect
     x="240"
     y="190"
     width="10"
     height="10"
     id="rect153"
     style="fill:#ffffff;fill-opacity:1" />
  <rect
     x="270"
     y="190"
     width="20"
     height="10"
     id="rect154"
     style="fill:#ffffff;fill-opacity:1" />
  <rect
     x="0"
     y="200"
     width="20"
     height="10"
     id="rect155"
     style="fill:#ffffff;fill-opacity:1" />
  <rect
     x="40"
     y="200"
     width="60"
     height="10"
     id="rect156"
     style="fill:#ffffff;fill-opacity:1" />
  <rect
     x="120"
     y="200"
     width="20"
     height="10"
     id="rect157"
     style="fill:#ffffff;fill-opacity:1" />
  <rect
     x="160"
     y="200"
     width="10"
     height="10"
     id="rect158"
     style="fill:#ffffff;fill-opacity:1" />
  <rect
     x="200"
     y="200"
     width="60"
     height="10"
     id="rect159"
     style="fill:#ffffff;fill-opacity:1" />
  <rect
     x="80"
     y="210"
     width="20"
     height="10"
     id="rect160"
     style="fill:#ffffff;fill-opacity:1" />
  <rect
     x="110"
     y="210"
     width="30"
     height="10"
     id="rect161"
     style="fill:#ffffff;fill-opacity:1" />
  <rect
     x="160"
     y="210"
     width="50"
     height="10"
     id="rect162"
     style="fill:#ffffff;fill-opacity:1" />
  <rect
     x="240"
     y="210"
     width="10"
     height="10"
     id="rect163"
     style="fill:#ffffff;fill-opacity:1" />
  <rect
     x="260"
     y="210"
     width="10"
     height="10"
     id="rect164"
     style="fill:#ffffff;fill-opacity:1" />
  <rect
     x="280"
     y="210"
     width="10"
     height="10"
     id="rect165"
     style="fill:#ffffff;fill-opacity:1" />
  <rect
     x="0"
     y="220"
     width="70"
     height="10"
     id="rect166"
     style="fill:#ffffff;fill-opacity:1" />
  <rect
     x="80"
     y="220"
     width="20"
     height="10"
     id="rect167"
     style="fill:#ffffff;fill-opacity:1" />
  <rect
     x="110"
     y="220"
     width="10"
     height="10"
     id="rect168"
     style="fill:#ffffff;fill-opacity:1" />
  <rect
     x="130"
     y="220"
     width="20"
     height="10"
     id="rect169"
     style="fill:#ffffff;fill-opacity:1" />
  <rect
     x="160"
     y="220"
     width="20"
     height="10"
     id="rect170"
     style="fill:#ffffff;fill-opacity:1" />
  <rect
     x="190"
     y="220"
     width="20"
     height="10"
     id="rect171"
     style="fill:#ffffff;fill-opacity:1" />
  <rect
     x="220"
     y="220"
     width="10"
     height="10"
     id="rect172"
     style="fill:#ffffff;fill-opacity:1" />
  <rect
     x="240"
     y="220"
     width="10"
     height="10"
     id="rect173"
     style="fill:#ffffff;fill-opacity:1" />
  <rect
     x="270"
     y="220"
     width="20"
     height="10"
     id="rect174"
     style="fill:#ffffff;fill-opacity:1" />
  <rect
     x="0"
     y="230"
     width="10"
     height="10"
     id="rect175"
     style="fill:#ffffff;fill-opacity:1" />
  <rect
     x="60"
     y="230"
     width="10"
     height="10"
     id="rect176"
     style="fill:#ffffff;fill-opacity:1" />
  <rect
     x="80"
     y="230"
     width="10"
     height="10"
     id="rect177"
     style="fill:#ffffff;fill-opacity:1" />
  <rect
     x="100"
     y="230"
     width="40"
     height="10"
     id="rect178"
     style="fill:#ffffff;fill-opacity:1" />
  <rect
     x="160"
     y="230"
     width="20"
     height="10"
     id="rect179"
     style="fill:#ffffff;fill-opacity:1" />
  <rect
     x="190"
     y="230"
     width="20"
     height="10"
     id="rect180"
     style="fill:#ffffff;fill-opacity:1" />
  <rect
     x="240"
     y="230"
     width="20"
     height="10"
     id="rect181"
     style="fill:#ffffff;fill-opacity:1" />
  <rect
     x="270"
     y="230"
     width="10"
     height="10"
     id="rect182"
     style="fill:#ffffff;fill-opacity:1" />
  <rect
     x="0"
     y="240"
     width="10"
     height="10"
     id="rect183"
     style="fill:#ffffff;fill-opacity:1" />
  <rect
     x="20"
     y="240"
     width="30"
     height="10"
     id="rect184"
     style="fill:#ffffff;fill-opacity:1" />
  <rect
     x="60"
     y="240"
     width="10"
     height="10"
     id="rect185"
     style="fill:#ffffff;fill-opacity:1" />
  <rect
     x="80"
     y="240"
     width="20"
     height="10"
     id="rect186"
     style="fill:#ffffff;fill-opacity:1" />
  <rect
     x="110"
     y="240"
     width="50"
     height="10"
     id="rect187"
     style="fill:#ffffff;fill-opacity:1" />
  <rect
     x="180"
     y="240"
     width="70"
     height="10"
     id="rect188"
     style="fill:#ffffff;fill-opacity:1" />
  <rect
     x="280"
     y="240"
     width="10"
     height="10"
     id="rect189"
     style="fill:#ffffff;fill-opacity:1" />
  <rect
     x="0"
     y="250"
     width="10"
     height="10"
     id="rect190"
     style="fill:#ffffff;fill-opacity:1" />
  <rect
     x="20"
     y="250"
     width="30"
     height="10"
     id="rect191"
     style="fill:#ffffff;fill-opacity:1" />
  <rect
     x="60"
     y="250"
     width="10"
     height="10"
     id="rect192"
     style="fill:#ffffff;fill-opacity:1" />
  <rect
     x="90"
     y="250"
     width="10"
     height="10"
     id="rect193"
     style="fill:#ffffff;fill-opacity:1" />
  <rect
     x="120"
     y="250"
     width="10"
     height="10"
     id="rect194"
     style="fill:#ffffff;fill-opacity:1" />
  <rect
     x="140"
     y="250"
     width="20"
     height="10"
     id="rect195"
     style="fill:#ffffff;fill-opacity:1" />
  <rect
     x="170"
     y="250"
     width="20"
     height="10"
     id="rect196"
     style="fill:#ffffff;fill-opacity:1" />
  <rect
     x="230"
     y="250"
     width="10"
     height="10"
     id="rect197"
     style="fill:#ffffff;fill-opacity:1" />
  <rect
     x="270"
     y="250"
     width="10"
     height="10"
     id="rect198"
     style="fill:#ffffff;fill-opacity:1" />
  <rect
     x="0"
     y="260"
     width="10"
     height="10"
     id="rect199"
     style="fill:#ffffff;fill-opacity:1" />
  <rect
     x="20"
     y="260"
     width="30"
     height="10"
     id="rect200"
     style="fill:#ffffff;fill-opacity:1" />
  <rect
     x="60"
     y="260"
     width="10"
     height="10"
     id="rect201"
     style="fill:#ffffff;fill-opacity:1" />
  <rect
     x="90"
     y="260"
     width="40"
     height="10"
     id="rect202"
     style="fill:#ffffff;fill-opacity:1" />
  <rect
     x="140"
     y="260"
     width="10"
     height="10"
     id="rect203"
     style="fill:#ffffff;fill-opacity:1" />
  <rect
     x="160"
     y="260"
     width="10"
     height="10"
     id="rect204"
     style="fill:#ffffff;fill-opacity:1" />
  <rect
     x="180"
     y="260"
     width="40"
     height="10"
     id="rect205"
     style="fill:#ffffff;fill-opacity:1" />
  <rect
     x="250"
     y="260"
     width="40"
     height="10"
     id="rect206"
     style="fill:#ffffff;fill-opacity:1" />
  <rect
     x="0"
     y="270"
     width="10"
     height="10"
     id="rect207"
     style="fill:#ffffff;fill-opacity:1" />
  <rect
     x="60"
     y="270"
     width="10"
     height="10"
     id="rect208"
     style="fill:#ffffff;fill-opacity:1" />
  <rect
     x="130"
     y="270"
     width="20"
     height="10"
     id="rect209"
     style="fill:#ffffff;fill-opacity:1" />
  <rect
     x="160"
     y="270"
     width="10"
     height="10"
     id="rect210"
     style="fill:#ffffff;fill-opacity:1" />
  <rect
     x="190"
     y="270"
     width="10"
     height="10"
     id="rect211"
     style="fill:#ffffff;fill-opacity:1" />
  <rect
     x="210"
     y="270"
     width="30"
     height="10"
     id="rect212"
     style="fill:#ffffff;fill-opacity:1" />
  <rect
     x="270"
     y="270"
     width="20"
     height="10"
     id="rect213"
     style="fill:#ffffff;fill-opacity:1" />
  <rect
     x="0"
     y="280"
     width="70"
     height="10"
     id="rect214"
     style="fill:#ffffff;fill-opacity:1" />
  <rect
     x="130"
     y="280"
     width="20"
     height="10"
     id="rect215"
     style="fill:#ffffff;fill-opacity:1" />
  <rect
     x="170"
     y="280"
     width="50"
     height="10"
     id="rect216"
     style="fill:#ffffff;fill-opacity:1" />
  <rect
     x="240"
     y="280"
     width="40"
     height="10"
     id="rect217"
     style="fill:#ffffff;fill-opacity:1" />
</svg>
