<?xml version="1.0" encoding="UTF-8" standalone="no"?>
<svg
   viewBox="0 0 759.99991 493.23463"
   height="493.23465"
   width="759.99994"
   xml:space="preserve"
   id="svg2"
   version="1.1"
   xmlns="http://www.w3.org/2000/svg"
   xmlns:svg="http://www.w3.org/2000/svg"
   xmlns:rdf="http://www.w3.org/1999/02/22-rdf-syntax-ns#"
   xmlns:cc="http://creativecommons.org/ns#"
   xmlns:dc="http://purl.org/dc/elements/1.1/"><metadata
     id="metadata8"><rdf:RDF><cc:Work
         rdf:about=""><dc:format>image/svg+xml</dc:format><dc:type
           rdf:resource="http://purl.org/dc/dcmitype/StillImage" /></cc:Work></rdf:RDF></metadata><defs
     id="defs6"><clipPath
       id="clipPath18"
       clipPathUnits="userSpaceOnUse"><path
         id="path16"
         d="M 0,800 H 800 V 0 H 0 Z" /></clipPath></defs><g
     transform="matrix(1.3333333,0,0,-1.3333333,-153.33332,779.95078)"
     id="g10"
     style="fill:#ffffff;fill-opacity:1"><g
       id="g12"
       style="fill:#ffffff;fill-opacity:1"><g
         clip-path="url(#clipPath18)"
         id="g14"
         style="fill:#ffffff;fill-opacity:1"><g
           transform="translate(660,247.0371)"
           id="g20"
           style="fill:#ffffff;fill-opacity:1"><path
             id="path22"
             style="fill:#ffffff;fill-opacity:1;fill-rule:nonzero;stroke:none"
             d="m 0,0 c 0,-3.795 -3.206,-7 -7,-7 h -506 c -3.794,0 -7,3.205 -7,7 v 305.926 c 0,3.795 3.206,7 7,7 H -7 c 3.794,0 7,-3.205 7,-7 z m -7,337.926 h -506 c -17.6,0 -32,-14.4 -32,-32 V 0 c 0,-17.6 14.4,-32 32,-32 H -7 c 17.6,0 32,14.4 32,32 v 305.926 c 0,17.6 -14.4,32 -32,32" /></g><g
           transform="translate(506.3799,410.7148)"
           id="g24"
           style="fill:#ffffff;fill-opacity:1"><path
             id="path26"
             style="fill:#ffffff;fill-opacity:1;fill-rule:nonzero;stroke:none"
             d="m 0,0 127.615,103.378 c 5.793,4.693 6.685,13.194 1.992,18.988 -4.694,5.795 -13.196,6.685 -18.988,1.992 l -217,-175.786 -216.998,175.786 c -5.792,4.694 -14.294,3.802 -18.987,-1.992 -4.694,-5.794 -3.801,-14.295 1.992,-18.988 L -212.76,0 -337.68,-125.787 c -5.254,-5.289 -5.224,-13.838 0.066,-19.092 2.633,-2.615 6.073,-3.92 9.512,-3.92 3.471,0 6.941,1.33 9.58,3.987 l 126.849,127.73 76.794,-62.209 c 0.034,-0.027 0.071,-0.051 0.105,-0.078 0.138,-0.11 0.28,-0.209 0.421,-0.313 0.236,-0.172 0.473,-0.338 0.716,-0.494 0.147,-0.094 0.295,-0.185 0.446,-0.273 0.281,-0.164 0.566,-0.315 0.856,-0.457 0.109,-0.055 0.216,-0.114 0.327,-0.164 0.417,-0.192 0.841,-0.364 1.271,-0.51 0.032,-0.01 0.066,-0.018 0.098,-0.029 0.4,-0.133 0.804,-0.243 1.211,-0.336 0.107,-0.026 0.214,-0.047 0.322,-0.069 0.35,-0.072 0.701,-0.129 1.055,-0.174 0.108,-0.013 0.215,-0.029 0.323,-0.041 0.445,-0.042 0.892,-0.072 1.338,-0.072 h 0.009 0.008 c 0.446,0 0.893,0.03 1.339,0.072 0.108,0.012 0.216,0.028 0.323,0.041 0.354,0.045 0.705,0.102 1.055,0.174 0.108,0.022 0.216,0.043 0.322,0.069 0.407,0.093 0.812,0.203 1.211,0.336 0.032,0.011 0.065,0.019 0.098,0.029 0.43,0.146 0.854,0.318 1.272,0.51 0.109,0.05 0.215,0.109 0.323,0.162 0.291,0.142 0.578,0.295 0.862,0.461 0.148,0.088 0.295,0.177 0.441,0.271 0.245,0.156 0.484,0.324 0.722,0.498 0.138,0.102 0.279,0.199 0.415,0.307 0.035,0.027 0.072,0.051 0.107,0.08 l 76.795,62.209 126.851,-127.73 c 2.639,-2.657 6.108,-3.987 9.579,-3.987 3.439,0 6.88,1.307 9.512,3.92 5.291,5.254 5.321,13.803 0.067,19.092 z" /></g></g></g></g></svg>
