<svg role="img" xmlns="http://www.w3.org/2000/svg" viewBox="0 0 600 600"><title>pixiv</title><path d="M600 123.504C599.999 55.576 544.424 0 476.496 0H123.503C55.576.001 0 55.576 0 123.504v352.992C.001 544.424 55.576 600 123.503 600h352.993C544.424 599.999 600 544.424 600 476.496c-.353 33.866 0-352.992 0-352.992" fill="#0096fa"/><path d="M313.164 371.503c-44.481 0-80.541-36.06-80.541-80.54 0-44.482 36.06-80.54 80.54-80.54s80.541 36.058 80.541 80.54c0 44.48-36.06 80.54-80.54 80.54M158.83 472.976a9.217 9.217 0 0 0 9.218 9.216h55.357a9.217 9.217 0 0 0 9.218-9.216v-50.351c23.448 14.373 51.022 22.67 80.54 22.67 85.237 0 154.334-69.096 154.334-154.333S398.4 136.63 313.164 136.63c-36.26 0-69.572 12.536-95.914 33.468l-18.802-29.237a9.22 9.22 0 0 0-7.754-4.231h-22.646a9.22 9.22 0 0 0-9.218 9.218z" fill="#fff"/></svg>