<?xml version="1.0" encoding="UTF-8" standalone="no"?>
<svg
   viewBox="0 0 759.99991 694.78134"
   height="694.78137"
   width="759.99994"
   xml:space="preserve"
   id="svg2"
   version="1.1"
   xmlns="http://www.w3.org/2000/svg"
   xmlns:svg="http://www.w3.org/2000/svg"
   xmlns:rdf="http://www.w3.org/1999/02/22-rdf-syntax-ns#"
   xmlns:cc="http://creativecommons.org/ns#"
   xmlns:dc="http://purl.org/dc/elements/1.1/"><metadata
     id="metadata8"><rdf:RDF><cc:Work
         rdf:about=""><dc:format>image/svg+xml</dc:format><dc:type
           rdf:resource="http://purl.org/dc/dcmitype/StillImage" /></cc:Work></rdf:RDF></metadata><defs
     id="defs6"><clipPath
       id="clipPath18"
       clipPathUnits="userSpaceOnUse"><path
         id="path16"
         d="M 0,800 H 800 V 0 H 0 Z" /></clipPath></defs><g
     transform="matrix(1.3333333,0,0,-1.3333333,-153.33332,880.72399)"
     id="g10"
     style="fill:#ffffff;fill-opacity:1"><g
       id="g12"
       style="fill:#ffffff;fill-opacity:1"><g
         clip-path="url(#clipPath18)"
         id="g14"
         style="fill:#ffffff;fill-opacity:1"><g
           transform="translate(484.1807,408.3115)"
           id="g20"
           style="fill:#ffffff;fill-opacity:1"><path
             id="path22"
             style="fill:#ffffff;fill-opacity:1;fill-rule:nonzero;stroke:none"
             d="m 0,0 -136.715,78.933 c -6.398,3.693 -14.396,-0.924 -14.396,-8.312 V -87.244 c 0,-7.388 7.998,-12.005 14.396,-8.312 L 0,-16.623 C 6.398,-12.929 6.398,-3.694 0,0" /></g><path
           id="path24"
           style="fill:#ffffff;fill-opacity:1;fill-rule:nonzero;stroke:none"
           d="m 650.827,566.233 h -69.724 v 44.773 h 69.724 z m 0,-94.31 h -69.724 v 44.773 h 69.724 z m 0,-94.31 h -69.724 v 44.773 h 69.724 z m 0,-94.309 h -69.724 v 44.773 h 69.724 z m 0,-94.311 h -69.724 v 44.773 h 69.724 z m -102.013,6.856 c 0,-3.787 -3.069,-6.856 -6.855,-6.856 H 258.041 c -3.786,0 -6.855,3.069 -6.855,6.856 v 408.302 c 0,3.786 3.069,6.855 6.855,6.855 h 283.918 c 3.786,0 6.855,-3.069 6.855,-6.855 z M 217.955,566.233 h -69.723 v 44.773 h 69.723 z m 0,-94.31 h -69.723 v 44.773 h 69.723 z m 0,-94.31 h -69.723 v 44.773 h 69.723 z m 0,-94.309 h -69.723 v 44.773 h 69.723 z m 0,-94.311 h -69.723 v 44.773 h 69.723 z m 425.913,471.55 H 156.131 C 133.415,660.543 115,642.128 115,619.412 V 180.589 c 0,-22.717 18.415,-41.132 41.131,-41.132 h 487.737 c 22.717,0 41.132,18.415 41.132,41.132 v 438.823 c 0,22.716 -18.415,41.131 -41.132,41.131" /></g></g></g></svg>
