<?xml version="1.0" encoding="UTF-8" standalone="no"?>
<svg
   viewBox="0 0 302.66666 302.66666"
   height="302.66666"
   width="302.66666"
   xml:space="preserve"
   id="svg2"
   version="1.1"
   xmlns="http://www.w3.org/2000/svg"
   xmlns:svg="http://www.w3.org/2000/svg"
   xmlns:rdf="http://www.w3.org/1999/02/22-rdf-syntax-ns#"
   xmlns:cc="http://creativecommons.org/ns#"
   xmlns:dc="http://purl.org/dc/elements/1.1/"><metadata
     id="metadata8"><rdf:RDF><cc:Work
         rdf:about=""><dc:format>image/svg+xml</dc:format><dc:type
           rdf:resource="http://purl.org/dc/dcmitype/StillImage" /></cc:Work></rdf:RDF></metadata><defs
     id="defs6"><clipPath
       id="clipPath18"
       clipPathUnits="userSpaceOnUse"><path
         id="path16"
         d="M 0,300 H 300 V 0 H 0 Z" /></clipPath></defs><g
     transform="matrix(1.3333333,0,0,-1.3333333,-48.666663,351.33332)"
     id="g10"
     style="fill:#fc0000;fill-opacity:1"><g
       id="g12"
       style="fill:#fc0000;fill-opacity:1"><g
         clip-path="url(#clipPath18)"
         id="g14"
         style="fill:#fc0000;fill-opacity:1"><g
           transform="translate(196.1582,153.2021)"
           id="g20"
           style="fill:#fc0000;fill-opacity:1"><path
             id="path22"
             style="fill:#fc0000;fill-opacity:1;fill-rule:nonzero;stroke:none"
             d="m 0,0 -64.047,38.053 c -2.647,1.572 -5.999,-0.335 -5.999,-3.414 v -75.701 c 0,-3.07 3.335,-4.978 5.982,-3.422 L -0.017,-6.837 C 2.588,-5.306 2.597,-1.543 0,0" /></g><g
           transform="translate(150,43.5)"
           id="g24"
           style="fill:#fc0000;fill-opacity:1"><path
             id="path26"
             style="fill:#fc0000;fill-opacity:1;fill-rule:nonzero;stroke:none"
             d="M 0,0 C -58.724,0 -106.5,47.775 -106.5,106.5 -106.5,165.224 -58.724,213 0,213 58.725,213 106.5,165.224 106.5,106.5 106.5,47.775 58.725,0 0,0 M 0,220 C -62.584,220 -113.5,169.084 -113.5,106.5 -113.5,43.916 -62.584,-7 0,-7 62.584,-7 113.5,43.916 113.5,106.5 113.5,169.084 62.584,220 0,220" /></g></g></g></g></svg>
